# xmcd
#
# Track frame offsets: 
#        150
#        18622
#        34807
#        57317
#        72677
#        91925
#        106867
#        122685
#        146842
#        164352
#        185617
#        198212
#        215087
#        234942
#        254442
#        273450
#        294867
#        321450
#
# Disc length: 4406 seconds
#
# Revision: 1
# Processed by: cddbd v1.5.2PL0 Copyright (c) Steve Scherf et al.
# Submitted via: ExactAudioCopyFreeDBPlugin 1.0
#
DISCID=16113412
DTITLE=Cypress Hill - IV
DYEAR=1998
DGENRE=Rap
TTITLE0=Looking Through The Eye Of A Pig
TTITLE1=Checkmate
TTITLE2=From The Window Of My Room
TTITLE3=Prelude To A Come Up
TTITLE4=Riot Starter
TTITLE5=Audio X
TTITLE6=Steel Magnolia
TTITLE7=I Remember That Freak Bitch (From The Club)
TTITLE8=(Goin' All Out) Nothin' To Lose
TTITLE9=Tequila Sunrise
TTITLE10=Dead Men Tell No Tales
TTITLE11=Feature Presentation
TTITLE12=Dr. Greenthumb
TTITLE13=Men Till There's No Men Left
TTITLE14=High Times
TTITLE15=Clash Of The Titans
TTITLE16=Lightning Strikes
TTITLE17=Case Closed
EXTD=
EXTT0=
EXTT1=
EXTT2=
EXTT3=
EXTT4=
EXTT5=
EXTT6=
EXTT7=
EXTT8=
EXTT9=
EXTT10=
EXTT11=
EXTT12=
EXTT13=
EXTT14=
EXTT15=
EXTT16=
EXTT17=
PLAYORDER=
